<svg width="446" height="263" viewBox="0 0 446 263" fill="none" xmlns="http://www.w3.org/2000/svg">
<g clip-path="url(#clip0_206_797)">
<path d="M238.355 0H240.319C242.462 0.539973 244.905 0.62366 247.133 0.821559L258.207 1.79128C261.541 5.16077 265.069 9.11195 268.331 12.6079L267.07 25.7953C268.791 27.5516 270.492 29.4588 272.16 31.2754C270.087 32.7274 268.105 34.1031 266.121 35.6792C266.071 38.6699 265.33 45.5105 264.969 48.4928C261.04 51.4587 257.077 54.3794 253.081 57.2539C246.465 56.6012 239.77 56.1205 233.178 55.3408C231.567 53.2409 225.236 46.8634 223.17 44.6403C223.507 40.3396 224.034 36.0308 224.354 31.7033L219.206 26.3479C221.29 24.9182 223.329 23.4238 225.319 21.8673C225.643 17.5439 226.166 13.0713 226.427 8.77945C230.066 5.90729 234.566 2.78157 238.355 0Z" fill="#E50075"/>
<path d="M242.473 12.8354C245.102 13.3313 248.97 13.4328 251.864 13.8227C253.321 15.1495 254.098 15.9855 255.387 17.4809C254.362 24.7449 253.774 34.0777 253.131 41.5503C251.822 42.4386 250.503 43.3828 249.205 44.2931C246.11 44.1368 242.746 43.7129 239.592 43.4945C238.323 42.2962 237.327 41.183 236.16 39.885C236.922 31.872 237.643 23.8546 238.318 15.8338C239.627 14.7688 241.084 13.7998 242.473 12.8354Z" fill="#131313"/>
<path d="M408.308 121.588L416.165 126.747C424.21 125.671 432.496 124.316 440.543 123.108C441.222 124.643 445.066 131.543 446 132.769V132.922L407.483 178.302C405.309 174.69 403.07 170.446 401.01 166.725C403.946 163.382 406.875 159.842 409.76 156.442C406.947 151.656 404.063 146.345 401.413 141.463C397.452 142.272 392.258 142.802 388.085 143.524C385.912 139.676 383.769 135.81 381.661 131.926L406.261 128.292C406.997 126.025 407.685 123.894 408.308 121.588Z" fill="#E50075"/>
<path d="M424.732 137.888C425.111 137.815 424.924 137.802 425.309 137.984C424.869 139.131 419.501 145.022 418.41 146.264L417.371 144.431C416.457 142.786 415.559 141.131 414.682 139.466L424.732 137.888Z" fill="#131313"/>
<path d="M9.16643 124.241C13.5951 122.278 18.4201 120.771 22.8488 118.905C27.1254 121.065 31.3877 123.253 35.6349 125.471C33.8659 128.708 31.59 133.615 29.7971 136.568C27.3145 135.282 24.6868 133.861 22.1693 132.678L17.9181 134.441C16.3901 137.363 14.8837 140.296 13.3991 143.24C13.7933 144.747 14.1586 146.263 14.4947 147.785L28.5177 155.019C30.8446 156.219 33.8906 157.899 36.2051 158.928C37.687 158.402 39.1541 157.836 40.6056 157.232C41.8896 154.86 44.0828 150.8 45.1133 148.382L44.1401 143.982C41.9288 142.831 39.5156 141.634 37.3538 140.424C39.3893 136.896 41.2189 132.645 43.1938 129.344C47.0545 131.36 51.1069 133.392 54.9168 135.469C56.0712 139.964 57.5887 145.273 58.5597 149.737C56.6355 153.581 54.6816 157.41 52.6977 161.224C51.9342 162.707 50.3634 165.977 49.5064 167.262C46.7089 168.765 38.9351 171.565 35.7519 172.808C31.8435 170.887 27.9654 168.751 24.0953 166.867L17.2705 169.48C16.6474 167.154 16.0685 164.817 15.5343 162.47C11.5783 160.35 7.56432 158.38 3.62856 156.28C3.16183 154.437 0.562446 143.591 0 142.558V141.763C2.83201 136.691 6.27815 128.814 9.16643 124.241Z" fill="#E50075"/>
<path d="M202.156 0H202.887C203.702 4.0185 204.142 8.25829 205.002 12.3534C198.442 13.917 189.107 14.5497 182.667 16.259C183.196 19.2678 183.709 22.2797 184.204 25.2944C189.917 24.1394 196.142 23.2354 201.933 22.1978C202.346 25.8968 203.314 30.734 203.956 34.4848C199.631 35.6095 190.968 36.7712 186.304 37.5437C187.309 44.4581 188.666 51.7685 189.831 58.6799C186.106 59.4822 181.348 60.1454 177.52 60.7889C176.026 53.7896 175.07 45.4866 173.677 38.2556L167.421 34.4371L172.14 28.67C170.719 21.2137 169.507 13.3449 168.256 5.8371C176.07 4.67459 183.966 3.19538 191.774 1.92975C193.657 1.62452 200.929 0.530047 202.156 0Z" fill="#E50075"/>
<path d="M152.052 146.378L171.523 146.393L182.229 155.89L182.207 168.882L187.755 173.819C185.882 175.404 184.033 177.017 182.207 178.656L182.228 191.302C180.232 193.102 173.049 199.785 171.315 200.917L151.921 200.911C148.411 197.687 144.623 194.5 141.055 191.277C140.924 187.174 141.068 182.65 140.996 178.464C139.18 176.931 137.379 175.379 135.595 173.81L141.06 168.92L141.053 155.976C142.844 154.266 150.14 147.674 152.052 146.378Z" fill="#E50075"/>
<path d="M157.149 158.59C159.637 158.745 163.655 158.626 166.257 158.631C167.551 159.679 168.773 160.796 170.012 161.907C169.874 169.436 169.931 177.882 170.044 185.405C168.826 186.474 167.59 187.523 166.336 188.55L156.917 188.56L153.415 185.57C153.465 177.643 153.458 169.715 153.392 161.789C154.655 160.619 155.808 159.673 157.149 158.59Z" fill="#131313"/>
<path d="M97.1109 146.38C106.226 146.254 115.583 146.365 124.717 146.367L134.039 157.168C134.192 160.846 134.079 165.388 134.056 169.122C133.063 170.408 131.535 172.06 130.438 173.317C131.839 174.813 133.232 176.317 134.617 177.83L134.618 190.016L128.486 197.328C127.485 198.548 126.455 199.743 125.396 200.913L97.0815 200.906L97.0967 178.596C95.2424 177.081 93.3092 175.35 91.4834 173.778C93.3711 172.17 95.2478 170.549 97.1135 168.915C96.9597 161.697 97.0538 153.606 97.1109 146.38Z" fill="#E50075"/>
<path d="M109.332 180.109C112.71 180.04 116.274 180.1 119.666 180.105C122.191 182.714 123.438 183.599 120.798 186.912L119.514 188.559L109.325 188.549C109.305 185.736 109.307 182.922 109.332 180.109Z" fill="#131313"/>
<path d="M109.321 158.661C112.2 158.534 115.862 158.632 118.799 158.631C121.276 161.732 123.262 162.401 120.158 166.033L118.967 167.482L109.322 167.492L109.321 158.661Z" fill="#131313"/>
<path d="M277.367 208.13L305.153 208.127C307.403 211.124 311.852 215.951 314.434 218.95L314.428 230.841L310.772 235.089L314.866 239.371L314.844 251.777C313.404 253.78 310.571 256.967 308.903 258.953C307.925 260.157 306.836 261.396 305.826 262.586L277.378 262.573C277.091 255.8 277.341 247.242 277.326 240.282C275.531 238.677 273.704 237.109 271.847 235.577C273.506 233.987 275.601 232.265 277.361 230.746C277.315 223.208 277.317 215.669 277.367 208.13Z" fill="#E50075"/>
<path d="M290.157 241.771C293.419 241.736 296.679 241.74 299.94 241.786C302.971 244.836 303.735 245.332 300.896 248.964L300.112 249.935C298.792 250.662 291.625 250.316 289.68 250.285C289.656 248.389 289.502 243.693 289.759 242.025L290.157 241.771Z" fill="#131313"/>
<path d="M289.68 220.385L299.147 220.382C301.93 223.598 303.422 224.406 300.273 228.013L299.277 229.254L289.667 229.25C289.652 226.293 289.656 223.339 289.68 220.385Z" fill="#131313"/>
<path d="M355.31 35.3899C358.492 37.7399 361.685 40.074 364.89 42.3921C363.701 51.4531 362.924 60.6139 361.809 69.6881C361.55 71.7978 361.391 73.8438 360.977 75.9346C366.824 68.1843 372.617 60.0009 378.34 52.1298C381.6 54.6446 385.134 57.1303 388.482 59.5539C383.889 65.8021 379.326 72.0736 374.795 78.3677C375.374 80.325 375.977 83.4187 376.445 85.4888C374.045 85.6897 371.643 85.8709 369.239 86.0324C364.672 91.767 360.321 98.538 355.75 104.421L355.308 104.319L346.395 97.8535C347.98 86.934 349.154 74.4513 350.45 63.3981L332.664 87.8334C329.245 85.3777 325.843 82.8999 322.457 80.3995C326.965 74.6513 331.66 67.8935 335.992 61.9311C335.417 59.5397 334.861 57.1442 334.321 54.7452C336.854 54.5869 339.123 54.4404 341.652 54.1167C346.197 48.2011 350.887 41.4674 355.31 35.3899Z" fill="#E50075"/>
<path d="M296.152 9.47534C297.949 9.91156 303.143 12.0001 305.131 12.7489L322.581 19.3496C324.008 23.7309 326.005 28.7102 327.575 33.1375C326.395 36.465 324.674 41.228 323.276 44.3755C320.661 46.0761 315.88 48.489 313.001 50.0529C313.812 58.7798 314.676 67.5017 315.593 76.2179L302.742 71.372C302.407 68.1766 302.093 64.9788 301.799 61.7792L300.373 47.6275L295.808 45.9372L288.284 65.9665C284.604 64.4136 280.403 63.0402 276.581 61.4692C279.295 54.6323 282.104 46.9901 284.604 40.0778C283.447 38.2438 282.173 35.6456 281.146 33.6809C283.106 32.8244 285.956 31.8813 288.021 31.128L296.152 9.47534Z" fill="#E50075"/>
<path d="M303.478 25.5798C306.514 26.6625 309.537 27.777 312.549 28.9229C313.115 30.3613 313.657 31.933 314.191 33.3941C313.211 35.6611 312.749 35.6731 310.665 36.8396C309.824 37.3397 309.58 37.5648 308.59 37.2794C305.756 36.4645 302.969 35.2706 300.223 34.195L303.478 25.5798Z" fill="#131313"/>
<path d="M261.531 146.379C265.394 146.326 269.362 146.37 273.234 146.366C274.392 148.92 277.485 153.978 279.011 156.653C282.424 162.629 285.847 168.894 289.39 174.77C289.558 165.449 289.427 155.726 289.43 146.376L301.618 146.397L301.614 168.885C303.439 170.547 305.275 172.195 307.124 173.829C305.275 175.4 303.435 177.025 301.601 178.618L301.618 194.158C301.621 195.21 301.695 200.023 301.507 200.78L301.002 200.918C297.435 200.933 293.868 200.92 290.301 200.878C289.724 199.712 288.957 198.37 288.293 197.235C283.349 188.771 278.811 179.914 273.733 171.542L273.704 200.905L261.505 200.913L261.509 178.582C259.669 177.046 257.787 175.361 255.969 173.783C257.857 172.155 259.717 170.569 261.526 168.852C261.485 161.361 261.485 153.87 261.531 146.379Z" fill="#E50075"/>
<path d="M324.119 146.378L343.361 146.379C346.645 148.969 350.853 153.005 354.119 155.852C354.13 160.477 354.304 165.28 354.324 169.977L342.085 169.967L342.083 162.108C340.811 160.915 339.522 159.743 338.215 158.591C335.661 158.738 331.771 158.633 329.191 158.587C327.926 159.65 326.721 160.757 325.5 161.868L325.497 185.421L329.067 188.553L338.459 188.556C339.62 187.483 342.005 185.723 341.776 184.041C340.931 183.228 334.16 183.646 332.431 183.609L332.471 171.307L354.287 171.318L354.291 191.297C351.038 194.416 346.957 197.871 343.549 200.915L323.984 200.909C320.534 197.732 316.817 194.525 313.3 191.394C313.28 187.156 313.285 182.918 313.317 178.68L307.703 173.797L313.324 168.905C313.259 164.582 313.293 160.168 313.285 155.838C315.78 153.692 321.686 148.013 324.119 146.378Z" fill="#E50075"/>
<path d="M45.7867 75.8772C47.0619 76.0538 58.6688 80.9293 60.8888 81.8356L101.083 98.2348C98.1496 101.41 95.0451 104.891 92.0139 107.938C87.9504 106.27 83.7139 104.46 79.6156 102.926C75.955 106.568 71.6309 111.447 68.113 115.308C67.9299 115.982 73.266 125.998 74.0471 127.511C71.5201 129.97 67.4011 134.565 65.0624 137.244L53.7931 114.885C51.5596 114.862 49.0905 114.993 46.8413 115.067C47.6691 112.074 48.5158 109.087 49.3812 106.104C45.727 98.7329 42.0203 91.3872 38.2617 84.0683C40.8073 81.3723 43.3158 78.6417 45.7867 75.8772Z" fill="#E50075"/>
<path d="M57.0088 93.6294C58.5476 94.0115 65.4401 97.036 67.2095 97.7801L64.3249 100.882L61.8732 103.511C60.6628 100.906 57.8727 96.043 57.0088 93.6294Z" fill="#131313"/>
<path d="M225.22 208.131L237.439 208.136L237.415 247.05L241.128 250.281C244.212 250.318 247.295 250.32 250.379 250.285C251.585 249.301 252.846 248.171 254.031 247.148C253.733 234.516 253.992 220.844 253.994 208.131L266.418 208.131C266.403 214.877 266.111 224.225 266.472 230.817C268.232 232.291 270.105 234.02 271.84 235.553C270.026 237.046 268.178 238.714 266.401 240.268C266.359 244.409 266.42 248.661 266.431 252.813C264.325 254.925 257.761 260.843 255.468 262.586L236.017 262.589C232.511 259.695 228.632 256.042 225.22 252.966L225.228 240.258C223.377 238.742 221.544 237.114 219.673 235.574C221.563 233.946 223.425 232.283 225.254 230.587C225.056 223.365 225.22 215.408 225.22 208.131Z" fill="#E50075"/>
<path d="M146.294 208.129L166.054 208.134L176.727 217.681C176.852 222.163 176.747 227.157 176.752 231.682L164.403 231.69L164.408 223.339C163.271 222.342 162.043 221.368 160.87 220.408C157.739 220.354 154.607 220.35 151.476 220.4C150.242 221.408 149.047 222.498 147.856 223.559L147.874 247.203C149.063 248.245 150.268 249.271 151.487 250.279C154.605 250.329 157.724 250.325 160.842 250.266C162.01 249.388 163.281 248.309 164.425 247.375C164.404 245.622 164.267 241.555 164.503 240.011C168.493 239.929 172.751 240.005 176.762 240.007L176.742 252.976C174.1 255.615 168.857 260.146 165.952 262.58L146.512 262.571C144.072 260.871 138.106 255.339 135.629 253.157L135.642 240.473C133.88 238.766 131.905 237.133 130.034 235.535L135.666 230.667L135.619 217.603C139.197 214.468 142.755 211.31 146.294 208.129Z" fill="#E50075"/>
<path d="M219.352 146.372L233.738 146.377L215.935 173.6C217.557 176.42 220.147 180.122 221.97 182.9L233.719 200.845C229.503 201.101 223.706 200.928 219.374 200.924C215.923 195.543 212.313 189.716 208.725 184.469C205.393 189.897 201.652 195.521 198.198 200.907L183.744 200.891C185.624 198.368 188.174 194.2 189.955 191.484L201.659 173.584C196.991 166.894 192.717 159.801 188.144 153.036C186.683 150.874 185.205 148.592 183.863 146.357L198.31 146.38C198.654 147.068 199.003 147.6 199.407 148.245C202.472 153.125 205.765 157.91 208.746 162.837L219.352 146.372Z" fill="#E50075"/>
<path d="M88.3199 40.6904C89.3189 41.0847 109.366 73.1661 111.785 76.9627L131.336 64.4756C133.483 68.0385 135.899 71.4682 138.01 75.101L126.692 82.3148C120.495 86.2746 114.165 90.4216 107.906 94.2523C104.291 88.1084 99.5078 81.0276 95.5966 74.9349C93.54 74.7548 90.5399 74.2245 88.4238 73.9207C89.1207 71.5365 89.7879 69.1436 90.4252 66.7429C86.6696 61.4925 81.6297 52.9722 77.9746 47.3497L88.3199 40.6904Z" fill="#E50075"/>
<path d="M183.799 208.128L196.016 208.136L196.037 250.299C203.552 250.379 211.213 250.299 218.74 250.299L218.714 262.571L212.937 262.575L183.802 262.565L183.802 240.316L178.207 235.555L183.819 230.63C183.678 223.271 183.801 215.518 183.799 208.128Z" fill="#E50075"/>
<path d="M408.077 79.6189C408.528 79.8514 415.503 87.9069 416.444 88.9602C410.73 94.1231 404.761 99.2575 398.99 104.383L399.011 111.633L391.797 110.71L374.795 125.684C374.085 125.498 367.413 117.652 366.367 116.456C371.448 111.564 378.16 106.096 383.523 101.232C383.447 98.9076 383.506 96.3272 383.508 93.984C385.917 94.2927 388.321 94.6256 390.723 94.9822C395.645 90.2018 402.796 84.276 408.077 79.6189Z" fill="#E50075"/>
<path d="M140.99 14.3608L141.315 14.4434C141.799 15.259 143.481 19.8381 143.973 21.1164L149.706 35.9208L156.571 38.323C155.507 40.5082 154.244 42.8202 153.113 44.9884C155.816 50.9864 158.921 59.8422 161.363 66.1692C157.629 67.6471 153.888 69.1045 150.14 70.5414L149.948 70.6274C149.819 70.5368 149.69 70.4463 149.561 70.3557C147.087 64.0592 143.828 55.4165 141.42 49.386C139.146 48.6351 136.78 47.7046 134.547 46.8296L137.975 40.3423C135.12 33.5043 132.307 25.7171 129.598 18.7321L140.99 14.3608Z" fill="#E50075"/>
<path d="M237.36 146.375C241.448 146.327 245.651 146.383 249.747 146.387L249.762 169.094L255.12 173.785L249.743 178.522C249.684 185.558 250.028 194.041 249.699 200.928L237.33 200.912L237.345 178.624C235.481 177.017 233.641 175.385 231.822 173.728C233.654 172.227 235.548 170.538 237.354 168.985C237.23 161.667 237.28 153.686 237.36 146.375Z" fill="#E50075"/>
</g>
<defs>
<clipPath id="clip0_206_797">
<rect width="446" height="263" fill="white"/>
</clipPath>
</defs>
</svg>
